<?xml version="1.0" encoding="utf-8"?>
<!-- Generator: Adobe Illustrator 24.2.1, SVG Export Plug-In . SVG Version: 6.00 Build 0)  -->
<svg version="1.1" id="Layer_1" xmlns="http://www.w3.org/2000/svg" xmlns:xlink="http://www.w3.org/1999/xlink" x="0px" y="0px"
	 viewBox="0 0 60 46.34" style="enable-background:new 0 0 60 46.34;" xml:space="preserve">
<style type="text/css">
	.st0{fill:#363A3F;}
	.st1{fill:#FFB40D;}
	.st2{fill:#F5F7FA;}
	.st3{fill:#F73C57;}
	.st4{fill:#F4314E;}
	.st5{fill:#D9DADD;}
</style>
<g>
	<path class="st0" d="M33.75,3.75c0,2.07-1.68,3.75-3.75,3.75s-3.75-1.68-3.75-3.75C26.25,1.68,27.93,0,30,0S33.75,1.68,33.75,3.75z
		"/>
	<path class="st1" d="M30,3.75c-15.19,0-27.5,12.31-27.5,27.5l0,15h55l0-15C57.5,16.06,45.19,3.75,30,3.75z"/>
	<path class="st2" d="M30,36.16c23.99,0,29.83,9.1,29.83,9.1c0.38,0.59,0.11,1.07-0.59,1.07H0.76c-0.7,0-0.96-0.48-0.59-1.07
		C0.17,45.27,6.01,36.16,30,36.16z"/>
	<polygon class="st3" points="17.5,30 24.64,18.1 31.79,30 	"/>
	<polygon class="st4" points="23.45,30 32.98,13.33 42.5,30 	"/>
	<path class="st5" d="M30,41.84c-17.78,0-27.98,4.37-27.98,4.37l55.96,0.13C57.98,46.34,47.78,41.84,30,41.84z"/>
</g>
</svg>
